<?xml version="1.0" encoding="UTF-8"?>
<svg version="1.1" xmlns="http://www.w3.org/2000/svg" width="1024" height="1024">
<path d="M0 0 C337.92 0 675.84 0 1024 0 C1024 337.92 1024 675.84 1024 1024 C686.08 1024 348.16 1024 0 1024 C0 686.08 0 348.16 0 0 Z " fill="#17202F" transform="translate(0,0)"/>
<path d="M0 0 C5.18069843 2.73653145 8.4112077 4.84515194 11.9609375 9.578125 C12.2909375 6.278125 12.6209375 2.978125 12.9609375 -0.421875 C18.2409375 -0.421875 23.5209375 -0.421875 28.9609375 -0.421875 C28.9609375 25.648125 28.9609375 51.718125 28.9609375 78.578125 C23.6809375 78.578125 18.4009375 78.578125 12.9609375 78.578125 C12.9609375 75.278125 12.9609375 71.978125 12.9609375 68.578125 C12.27128906 69.12082031 11.58164062 69.66351562 10.87109375 70.22265625 C-0.00048161 78.49937 -8.232756 80.90423768 -22.0390625 79.578125 C-25.67252928 78.68061528 -28.77229116 77.3910036 -32.0390625 75.578125 C-32.97105469 75.06958984 -32.97105469 75.06958984 -33.921875 74.55078125 C-43.08858544 68.77534261 -48.05949916 59.6951734 -51.0390625 49.578125 C-51.5340625 48.093125 -51.5340625 48.093125 -52.0390625 46.578125 C-52.86164193 31.61350686 -51.15544805 21.48488971 -41.4453125 9.6328125 C-31.57571186 -1.12132782 -13.77520479 -5.68899883 0 0 Z " fill="#F3F4F6" transform="translate(508.0390625,499.421875)"/>
<path d="M0 0 C22.44 0 44.88 0 68 0 C68 5.61 68 11.22 68 17 C51.17 17 34.34 17 17 17 C17 26.9 17 36.8 17 47 C31.52 47 46.04 47 61 47 C61 52.28 61 57.56 61 63 C46.48 63 31.96 63 17 63 C17 78.51 17 94.02 17 110 C11.39 110 5.78 110 0 110 C0 73.7 0 37.4 0 0 Z " fill="#F4F6F7" transform="translate(379,468)"/>
<path d="M0 0 C11.03414501 4.88283542 16.40393822 11.77198528 20.98828125 22.67578125 C21.94377377 25.81205081 22.1097499 28.63069637 22.10180664 31.90332031 C22.10169334 33.46448578 22.10169334 33.46448578 22.10157776 35.05718994 C22.09641647 36.17398132 22.09125519 37.29077271 22.0859375 38.44140625 C22.08452255 39.5899408 22.0831076 40.73847534 22.08164978 41.92181396 C22.07605268 45.58982956 22.06350069 49.2577841 22.05078125 52.92578125 C22.04576588 55.41275954 22.04120303 57.89973878 22.03710938 60.38671875 C22.0260842 66.48309644 22.00882152 72.57942849 21.98828125 78.67578125 C16.37828125 78.67578125 10.76828125 78.67578125 4.98828125 78.67578125 C4.97893555 77.20302734 4.96958984 75.73027344 4.95996094 74.21289062 C4.91995731 68.72593426 4.85416868 63.23953245 4.78076172 57.75292969 C4.75261236 55.38255969 4.73136796 53.01209687 4.71728516 50.64160156 C4.69577274 47.22543019 4.64907731 43.8103677 4.59765625 40.39453125 C4.59642761 39.34213257 4.59519897 38.28973389 4.59393311 37.20544434 C4.45180301 29.99441089 3.4296835 24.23038753 -1.79296875 18.8359375 C-2.36015625 18.47371094 -2.92734375 18.11148438 -3.51171875 17.73828125 C-4.07890625 17.35800781 -4.64609375 16.97773437 -5.23046875 16.5859375 C-10.13952108 14.07758401 -15.62564257 14.16605795 -21.01171875 14.67578125 C-24.41413699 16.04066805 -24.41413699 16.04066805 -27.01171875 17.67578125 C-27.67171875 17.67578125 -28.33171875 17.67578125 -29.01171875 17.67578125 C-29.27984375 18.23265625 -29.54796875 18.78953125 -29.82421875 19.36328125 C-31.01171875 21.67578125 -31.01171875 21.67578125 -32.57421875 24.17578125 C-34.73162342 27.92778937 -35.13633679 31.15548257 -35.21704102 35.44433594 C-35.23698624 36.38500916 -35.25693146 37.32568237 -35.27748108 38.29486084 C-35.30254982 39.80599457 -35.30254982 39.80599457 -35.328125 41.34765625 C-35.3489061 42.38521057 -35.36968719 43.42276489 -35.39109802 44.49176025 C-35.45643283 47.80303383 -35.51540392 51.11438607 -35.57421875 54.42578125 C-35.61741924 56.6718831 -35.66103402 58.91797703 -35.70507812 61.1640625 C-35.81209782 66.66788833 -35.91341067 72.1717932 -36.01171875 77.67578125 C-41.29171875 77.67578125 -46.57171875 77.67578125 -52.01171875 77.67578125 C-52.01171875 51.93578125 -52.01171875 26.19578125 -52.01171875 -0.32421875 C-46.73171875 -0.32421875 -41.45171875 -0.32421875 -36.01171875 -0.32421875 C-36.01171875 2.97578125 -36.01171875 6.27578125 -36.01171875 9.67578125 C-35.35171875 9.67578125 -34.69171875 9.67578125 -34.01171875 9.67578125 C-33.78484375 9.09828125 -33.55796875 8.52078125 -33.32421875 7.92578125 C-26.91471756 -3.06193507 -10.88794417 -4.102349 0 0 Z " fill="#F0F2F3" transform="translate(749.01171875,499.32421875)"/>
<path d="M0 0 C19.8 0 39.6 0 60 0 C60 14.89853896 60 14.89853896 54.1875 20.9375 C52.99082651 22.28916087 51.795539 23.64204993 50.6015625 24.99609375 C49.99731445 25.66108887 49.39306641 26.32608398 48.77050781 27.01123047 C46.05494479 30.06155815 43.56023337 33.27091277 41.0625 36.5 C40.61100586 37.07500244 40.15951172 37.65000488 39.69433594 38.24243164 C37.21033575 41.40846837 34.80217225 44.61929183 32.4375 47.875 C31.2309375 49.421875 31.2309375 49.421875 30 51 C29.34 51 28.68 51 28 51 C27.7525 51.721875 27.505 52.44375 27.25 53.1875 C25.88745796 56.25321959 24.14629658 58.43829118 22 61 C21.67 61.66 21.34 62.32 21 63 C34.53 63 48.06 63 62 63 C62 68.28 62 73.56 62 79 C40.88 79 19.76 79 -2 79 C-2 64 -2 64 0 61 C0.66 61 1.32 61 2 61 C2.24105469 60.45859375 2.48210938 59.9171875 2.73046875 59.359375 C4.32054691 56.40427589 6.25543727 53.90297124 8.3125 51.25 C8.74473877 50.6921582 9.17697754 50.13431641 9.62231445 49.55957031 C13.79316139 44.20618721 18.07807732 38.94598424 22.36987305 33.68945312 C27.37679888 27.55516479 32.24897737 21.33469684 37 15 C24.79 15 12.58 15 0 15 C0 10.05 0 5.1 0 0 Z " fill="#F1F2F4" transform="translate(586,499)"/>
<path d="M0 0 C6.55290176 3.70879654 12.05332709 8.31955227 14.3046875 15.71484375 C15.97553152 24.05440733 15.01918176 30.16742971 10.59765625 37.484375 C6.69822217 42.66163632 1.86347774 45.87501054 -4.25 47.9375 C-11.54244847 48.88772813 -18.07361099 48.06706242 -24.25 43.9375 C-26.55327722 41.80078209 -28.57599556 39.60277766 -30.25 36.9375 C-30.25 36.2775 -30.25 35.6175 -30.25 34.9375 C-30.91 34.9375 -31.57 34.9375 -32.25 34.9375 C-33.5017248 31.04100183 -33.47027006 27.11320486 -33.5 23.0625 C-33.520625 22.36769531 -33.54125 21.67289063 -33.5625 20.95703125 C-33.61318118 14.22910523 -31.2476489 9.39727361 -26.8125 4.39453125 C-18.98899108 -2.90089082 -9.74650398 -4.45174157 0 0 Z " fill="#1B2431" transform="translate(506.25,515.0625)"/>
<path d="M0 0 C5.28 0 10.56 0 16 0 C16 36.63 16 73.26 16 111 C10.72 111 5.44 111 0 111 C0 74.37 0 37.74 0 0 Z " fill="#F6F7F8" transform="translate(554,467)"/>
<path d="M0 0 C1.79744982 0.00934764 3.59491254 0.0164545 5.39237976 0.0214386 C10.07958336 0.0403552 14.76598858 0.0893197 19.45288086 0.1449585 C24.25298265 0.19648582 29.05321586 0.2190235 33.85351562 0.24414062 C43.23993044 0.2974566 52.62575771 0.38257863 62.01171875 0.48828125 C62.01171875 4.11828125 62.01171875 7.74828125 62.01171875 11.48828125 C61.05895554 11.49192688 60.10619232 11.49557251 59.1245575 11.49932861 C50.10678723 11.53641193 41.08935425 11.59432899 32.07184124 11.67218399 C27.43679664 11.7115447 22.80193877 11.74378876 18.16674805 11.75927734 C13.68610578 11.77451955 9.2059773 11.80909756 4.72556496 11.85659027 C3.02376608 11.87132657 1.32189382 11.87931777 -0.37996864 11.8801651 C-13.44245838 11.89319891 -24.20795662 12.82902063 -34.05078125 22.35546875 C-41.6780088 30.75157005 -44.09283642 40.38476539 -44.98828125 51.48828125 C-48.94828125 51.48828125 -52.90828125 51.48828125 -56.98828125 51.48828125 C-57.67873189 37.44911818 -52.72952869 25.66805897 -43.55078125 15.11328125 C-30.97519363 1.9120425 -17.50532071 -0.27045324 0 0 Z " fill="#D2A75F" transform="translate(284.98828125,458.51171875)"/>
<path d="M0 0 C5.61 0 11.22 0 17 0 C17 26.07 17 52.14 17 79 C11.39 79 5.78 79 0 79 C0 52.93 0 26.86 0 0 Z " fill="#ECEEF0" transform="translate(662,499)"/>
<path d="M0 0 C5.28 0 10.56 0 16 0 C16 3.3 16 6.6 16 10 C17.65 9.34 19.3 8.68 21 8 C21.33 8.99 21.66 9.98 22 11 C21.67 11.66 21.34 12.32 21 13 C20.34 13 19.68 13 19 13 C17.73398336 22.76641411 16.85222357 32.40533951 16.68359375 42.2578125 C16.66281265 43.28687714 16.64203156 44.31594177 16.62062073 45.37619019 C16.55584737 48.62573325 16.49658018 51.87534895 16.4375 55.125 C16.3942459 57.34375716 16.35062955 59.56250729 16.30664062 61.78125 C16.20024132 67.18742779 16.09877607 72.59367777 16 78 C10.72 78 5.44 78 0 78 C0 52.26 0 26.52 0 0 Z " fill="#F6F7F9" transform="translate(697,499)"/>
<path d="M0 0 C1.74216797 0.05414062 1.74216797 0.05414062 3.51953125 0.109375 C4.39996094 0.15578125 5.28039062 0.2021875 6.1875 0.25 C4.1532952 4.85372665 1.86919728 7.8376952 -1.8125 11.25 C-2.41191406 11.91386719 -3.01132812 12.57773437 -3.62890625 13.26171875 C-6.10870324 15.51970922 -8.14774165 16.37243709 -11.3125 17.4375 C-12.2509375 17.76105469 -13.189375 18.08460938 -14.15625 18.41796875 C-18.2334145 19.69508057 -21.65386935 20.37415503 -25.94824219 20.36352539 C-26.96899841 20.36344986 -27.98975464 20.36337433 -29.04144287 20.36329651 C-30.13636047 20.35813522 -31.23127808 20.35297394 -32.359375 20.34765625 C-33.4857135 20.3462413 -34.612052 20.34482635 -35.77252197 20.34336853 C-39.36920835 20.33777199 -42.96583244 20.3252201 -46.5625 20.3125 C-49.00130118 20.30748455 -51.44010334 20.30292172 -53.87890625 20.29882812 C-59.85679483 20.28780369 -65.83463685 20.2705414 -71.8125 20.25 C-71.8125 16.62 -71.8125 12.99 -71.8125 9.25 C-70.31468994 9.2406543 -68.81687988 9.23130859 -67.27368164 9.22167969 C-61.6879359 9.18164521 -56.10273313 9.11584816 -50.51733398 9.04248047 C-48.10529585 9.01434892 -45.69316687 8.99309574 -43.28100586 8.97900391 C-39.80275218 8.95746673 -36.32558188 8.91075866 -32.84765625 8.859375 C-31.24398949 8.85753204 -31.24398949 8.85753204 -29.60792542 8.85565186 C-21.65627202 8.70198762 -15.33371067 7.2339 -9.17578125 2.015625 C-6.00200411 -0.35552751 -3.90718837 -0.1578662 0 0 Z " fill="#C1A16F" transform="translate(332.8125,518.75)"/>
<path d="M0 0 C1.07770157 0.0028299 2.15540314 0.00565979 3.26576233 0.00857544 C6.68900924 0.01972057 10.11198916 0.04481494 13.53515625 0.0703125 C15.8639285 0.08034961 18.19270487 0.08947418 20.52148438 0.09765625 C26.21364366 0.11964139 31.90560477 0.15413232 37.59765625 0.1953125 C37.59765625 4.4853125 37.59765625 8.7753125 37.59765625 13.1953125 C30.6640625 13.29296875 30.6640625 13.29296875 28.59765625 13.1953125 C28.10265625 12.7003125 28.10265625 12.7003125 27.59765625 12.1953125 C24.71076303 12.05684094 21.84956941 11.98210639 18.9609375 11.95703125 C18.08874069 11.9489595 17.21654388 11.94088776 16.31791687 11.93257141 C14.46595254 11.91871044 12.61396245 11.90799733 10.76196289 11.90014648 C7.93911576 11.88298852 5.11745637 11.83912816 2.29492188 11.79492188 C0.49610237 11.78479042 -1.30272711 11.77627573 -3.1015625 11.76953125 C-3.94240891 11.75202316 -4.78325531 11.73451508 -5.64958191 11.71647644 C-11.60433324 11.7383306 -15.09368943 12.88665818 -19.40234375 17.1953125 C-21.25521877 17.26757752 -23.11068253 17.2791247 -24.96484375 17.2578125 C-25.97675781 17.24878906 -26.98867188 17.23976563 -28.03125 17.23046875 C-28.81371094 17.21886719 -29.59617187 17.20726562 -30.40234375 17.1953125 C-30.13705708 13.39287022 -29.68658719 11.53640462 -27.21484375 8.5703125 C-18.2973306 1.03996807 -11.30754366 -0.11270105 0 0 Z " fill="#DDAF69" transform="translate(291.40234375,492.8046875)"/>
<path d="M0 0 C0.66 0.33 1.32 0.66 2 1 C0.68 2.32 -0.64 3.64 -2 5 C-1.01 6.485 -1.01 6.485 0 8 C-0.99 8 -1.98 8 -3 8 C-2.67 8.33 -2.34 8.66 -2 9 C-0.14227838 8.91015699 1.71247985 8.75388139 3.5625 8.5625 C4.57441406 8.46066406 5.58632813 8.35882813 6.62890625 8.25390625 C7.80259766 8.12822266 7.80259766 8.12822266 9 8 C7.33245458 9.11169695 5.65617302 10.21153546 3.94921875 11.26171875 C-4.69347341 16.710048 -10.53396637 23.25586771 -14 33 C-14.93324153 37.64686587 -15.54469368 42.28384205 -16 47 C-19.96 47 -23.92 47 -28 47 C-28.69045064 32.96083693 -23.74124744 21.17977772 -14.5625 10.625 C-10.27009489 6.07201043 -6.03799323 2.01266441 0 0 Z " fill="#D8A965" transform="translate(256,463)"/>
<path d="M0 0 C0.66773438 0.00644531 1.33546875 0.01289063 2.0234375 0.01953125 C11.68845665 0.15909831 21.34831346 0.68569771 31 1.1875 C30.67 1.80625 30.34 2.425 30 3.0625 C28.85806765 5.09768344 28.85806765 5.09768344 29 7.1875 C30.32 7.8475 31.64 8.5075 33 9.1875 C31.63234497 9.217229 31.63234497 9.217229 30.23706055 9.24755859 C26.80193006 9.32640694 23.36717377 9.41311763 19.93237305 9.50488281 C18.45556071 9.54278686 16.97866808 9.57770113 15.50170898 9.609375 C7.64804029 9.77981745 -0.00573331 10.07733928 -7.72265625 11.7109375 C-11.12686642 12.42331081 -14.5458278 12.79646164 -18 13.1875 C-18.33 12.1975 -18.66 11.2075 -19 10.1875 C-18.01 10.1875 -17.02 10.1875 -16 10.1875 C-16.66 9.5275 -17.32 8.8675 -18 8.1875 C-12.93454624 1.33423903 -8.64902661 -0.10078315 0 0 Z " fill="#EAC273" transform="translate(271,459.8125)"/>
<path d="M0 0 C5.5 3 5.5 3 7 6 C7.39771327 10.77255923 7.47453429 13.08482672 5.25 17.375 C1.90909091 21.27272727 1.90909091 21.27272727 -1 22 C-5.72339884 21.92502542 -8.03178968 21.6253025 -12 19.0625 C-14.8277001 14.73258422 -14.91802329 11.03672235 -14 6 C-10.43078378 0.17028018 -6.66853486 -0.92790374 0 0 Z " fill="#F2F2F4" transform="translate(674,466)"/>
<path d="M0 0 C16.17 0 32.34 0 49 0 C49 4.29 49 8.58 49 13 C42.06640625 13.09765625 42.06640625 13.09765625 40 13 C39.505 12.505 39.505 12.505 39 12 C36.26298822 11.83989519 33.5483241 11.74053172 30.80859375 11.68359375 C29.57883568 11.6524221 29.57883568 11.6524221 28.32423401 11.62062073 C25.69541099 11.55503506 23.06648496 11.49619874 20.4375 11.4375 C18.65949439 11.39432333 16.88149935 11.35070933 15.10351562 11.30664062 C10.73578366 11.19934457 6.36794773 11.09810296 2 11 C2 10.67 2 10.34 2 10 C3.25296875 9.93941406 4.5059375 9.87882812 5.796875 9.81640625 C7.44792724 9.73197744 9.09896835 9.64733061 10.75 9.5625 C11.575 9.52318359 12.4 9.48386719 13.25 9.44335938 C14.04921875 9.40146484 14.8484375 9.35957031 15.671875 9.31640625 C16.4050293 9.27974854 17.13818359 9.24309082 17.89355469 9.20532227 C20.00911603 9.051307 20.00911603 9.051307 22.0546875 8.48632812 C25.10890259 7.72277435 28.11282188 7.90845205 31.25 7.9375 C33.14492188 7.95103516 33.14492188 7.95103516 35.078125 7.96484375 C36.04234375 7.97644531 37.0065625 7.98804688 38 8 C38.33 6.35 38.66 4.7 39 3 C38.21625 3.165 37.4325 3.33 36.625 3.5 C34.00755704 3.99856056 32.54412775 4.15303593 30 3.4375 C27.94112319 2.76776371 27.94112319 2.76776371 26 4 C25.01 3.67 24.02 3.34 23 3 C20.36195411 3.39397335 20.36195411 3.39397335 18 4 C17.67 3.34 17.34 2.68 17 2 C11.39 1.67 5.78 1.34 0 1 C0 0.67 0 0.34 0 0 Z " fill="#B69869" transform="translate(280,493)"/>
<path d="M0 0 C11.88 0 23.76 0 36 0 C36 0.33 36 0.66 36 1 C32.7 1.33 29.4 1.66 26 2 C27.32 2.66 28.64 3.32 30 4 C29.67 5.32 29.34 6.64 29 8 C30.65 8 32.3 8 34 8 C34 8.33 34 8.66 34 9 C22.64764338 10.05253638 11.39053108 10.10313358 0 10 C0 6.7 0 3.4 0 0 Z " fill="#E7BE79" transform="translate(262,529)"/>
<path d="M0 0 C2.90286409 -0.00985107 5.80506057 -0.04103015 8.70776367 -0.07226562 C10.55736889 -0.07878399 12.4069791 -0.08403901 14.2565918 -0.08789062 C15.12216202 -0.10023743 15.98773224 -0.11258423 16.87953186 -0.12530518 C17.68144455 -0.12230408 18.48335724 -0.11930298 19.30957031 -0.11621094 C20.01283951 -0.11985657 20.7161087 -0.1235022 21.44068909 -0.1272583 C23.88908677 0.35274699 24.75559889 1.33527997 26.31518555 3.24023438 C27.7460603 6.10198388 27.09918994 8.10190115 26.62768555 11.24023438 C26.47944336 12.31273437 26.33120117 13.38523437 26.1784668 14.49023438 C25.31518555 17.24023438 25.31518555 17.24023438 23.3894043 18.59570312 C20.82727024 19.39184648 18.98568486 19.57404679 16.31518555 19.24023438 C15.76378906 18.74555664 15.21239258 18.25087891 14.64428711 17.74121094 C11.36991217 15.6310582 8.31642404 15.84749964 4.54956055 15.91210938 C3.79733215 15.91398254 3.04510376 15.91585571 2.27008057 15.91778564 C0.67976444 15.92449758 -0.91053542 15.93839514 -2.50073242 15.95898438 C-4.91251307 15.98994806 -7.32363651 15.99994167 -9.7355957 16.00585938 C-11.28638477 16.01503896 -12.83716729 16.02541775 -14.38793945 16.03710938 C-15.09968323 16.04135925 -15.811427 16.04560913 -16.54473877 16.04998779 C-21.32636753 16.11683726 -25.94820531 16.57724196 -30.68481445 17.24023438 C-30.18981445 15.75523437 -30.18981445 15.75523437 -29.68481445 14.24023438 C-26.30963776 12.55264603 -22.48625847 13.0987008 -18.7746582 13.10742188 C-17.89201797 13.10646515 -17.00937775 13.10550842 -16.09999084 13.10452271 C-14.23300098 13.10384169 -12.36600876 13.10569053 -10.49902344 13.10986328 C-7.63056157 13.11521898 -4.76225584 13.10991239 -1.89379883 13.10351562 C-0.08325161 13.1041763 1.72729552 13.10545723 3.5378418 13.10742188 C4.83311546 13.10438553 4.83311546 13.10438553 6.15455627 13.10128784 C12.20023116 13.12527998 12.20023116 13.12527998 13.31518555 14.24023438 C16.30407914 14.69789105 19.30488203 14.94344389 22.31518555 15.24023438 C22.31518555 10.95023437 22.31518555 6.66023438 22.31518555 2.24023438 C5.15518555 2.57023437 -12.00481445 2.90023438 -29.68481445 3.24023438 C-30.01481445 2.58023437 -30.34481445 1.92023438 -30.68481445 1.24023438 C-20.46988925 0.09143933 -10.26799679 0.021133 0 0 Z " fill="#27231D" transform="translate(306.684814453125,490.759765625)"/>
<path d="M0 0 C5.94 0 11.88 0 18 0 C18 7.26 18 14.52 18 22 C9.72732042 17.86366021 3.57618373 10.50017539 0 2 C0 1.34 0 0.68 0 0 Z " fill="#B9945F" transform="translate(242,557)"/>
<path d="M0 0 C26.73 0 53.46 0 81 0 C81 3.63 81 7.26 81 11 C56.25 11 31.5 11 6 11 C6 10.67 6 10.34 6 10 C30.42 10 54.84 10 80 10 C79.01 6.04 79.01 6.04 78 2 C77.22929169 2.00222061 76.45858337 2.00444122 75.66452026 2.00672913 C68.34024215 2.02690908 61.01597783 2.04206334 53.691679 2.05181217 C49.92774121 2.05699288 46.16382673 2.06400115 42.39990234 2.07543945 C38.75590924 2.08644183 35.1119383 2.09231289 31.46792984 2.09487724 C30.0895363 2.09670068 28.71114374 2.10025982 27.33275986 2.10573006 C18.16375556 2.14061389 9.13426957 1.7797655 0 1 C0 0.67 0 0.34 0 0 Z " fill="#BCA37D" transform="translate(266,459)"/>
<path d="M0 0 C0.99 0.33 1.98 0.66 3 1 C2.6875 2.9375 2.6875 2.9375 2 5 C1.01 5.33 0.02 5.66 -1 6 C-1 6.99 -1 7.98 -1 9 C-1.66 9 -2.32 9 -3 9 C-3.268125 9.886875 -3.53625 10.77375 -3.8125 11.6875 C-4.9250635 14.7909666 -6.10195778 17.31110685 -8 20 C-8.66 20 -9.32 20 -10 20 C-9.938125 21.546875 -9.938125 21.546875 -9.875 23.125 C-9.99575149 26.86829627 -10.64872018 29.53734547 -12 33 C-14.475 33.495 -14.475 33.495 -17 34 C-16.85796663 31.62471849 -16.71148388 29.24984749 -16.5625 26.875 C-16.50352539 25.87726563 -16.50352539 25.87726563 -16.44335938 24.859375 C-15.93484464 16.87960524 -15.93484464 16.87960524 -15 13 C-12.4375 11.625 -12.4375 11.625 -10 11 C-9.67 11.33 -9.34 11.66 -9 12 C-8.34 10.35 -7.68 8.7 -7 7 C-7.66 7 -8.32 7 -9 7 C-8.34 5.68 -7.68 4.36 -7 3 C-5.35 3.33 -3.7 3.66 -2 4 C-1.34 2.68 -0.68 1.36 0 0 Z " fill="#D29F59" transform="translate(249,473)"/>
<path d="M0 0 C0 0.66 0 1.32 0 2 C0.66 2.66 1.32 3.32 2 4 C1.01 4 0.02 4 -1 4 C-1 4.66 -1 5.32 -1 6 C-10.7351767 8.10084738 -20.10386916 8.21105492 -30 8 C-30.33 7.01 -30.66 6.02 -31 5 C-32.49985609 3.33289654 -32.49985609 3.33289654 -34 2 C-33 1 -33 1 -30.74682617 0.91821289 C-29.77205322 0.9361792 -28.79728027 0.95414551 -27.79296875 0.97265625 C-26.2006543 0.99102539 -26.2006543 0.99102539 -24.57617188 1.00976562 C-22.32870871 1.04474056 -20.08130463 1.0837606 -17.83398438 1.12695312 C-16.23586914 1.14338867 -16.23586914 1.14338867 -14.60546875 1.16015625 C-13.62731201 1.17699463 -12.64915527 1.19383301 -11.64135742 1.21118164 C-6.85219208 0.8282786 -5.00559611 -1.39044336 0 0 Z " fill="#D0A259" transform="translate(321,529)"/>
<path d="M0 0 C0 4.29 0 8.58 0 13 C-0.33 13 -0.66 13 -1 13 C-1 9.37 -1 5.74 -1 2 C-11.336814 2.01494072 -21.67314661 2.05682775 -32.00970745 2.13209057 C-36.81065165 2.16622258 -41.6112823 2.19144895 -46.41235352 2.19555664 C-51.05516235 2.19986937 -55.6972655 2.22857584 -60.33985329 2.27343178 C-62.10140671 2.28631245 -63.86304499 2.29074834 -65.62463951 2.28615379 C-78.52081737 2.26037857 -90.56412625 3.24380672 -100.6875 12.25 C-104.98675497 15.99337748 -104.98675497 15.99337748 -107 17 C-106.42655063 14.13275314 -106.1385485 13.1385485 -104 11 C-103.01 11 -102.02 11 -101 11 C-101.33 10.01 -101.66 9.02 -102 8 C-100.865625 7.54625 -99.73125 7.0925 -98.5625 6.625 C-94.95278308 5.42904194 -94.95278308 5.42904194 -94 3 C-94.66 2.67 -95.32 2.34 -96 2 C-92.13657963 0.75564001 -88.2644241 0.83359195 -84.24975586 0.81054688 C-83.47370499 0.80225357 -82.69765411 0.79396027 -81.89808655 0.78541565 C-80.21644541 0.76804671 -78.5347805 0.75287134 -76.85310173 0.73963928 C-74.19290294 0.71857628 -71.53282374 0.69155764 -68.87269592 0.66296387 C-62.26779138 0.59320112 -55.6628014 0.53371492 -49.05780029 0.47393799 C-43.47296105 0.4230124 -37.88818676 0.36819365 -32.30343819 0.30812073 C-29.68049674 0.28153535 -27.05754922 0.26072973 -24.43455505 0.2401123 C-22.8299836 0.22351089 -21.22541491 0.20663919 -19.62084961 0.18945312 C-18.524366 0.1831765 -18.524366 0.1831765 -17.4057312 0.17677307 C-0.27654921 -0.03607164 -0.27654921 -0.03607164 0 0 Z " fill="#392C1C" transform="translate(348,457)"/>
<path d="M0 0 C-0.33 0.61875 -0.66 1.2375 -1 1.875 C-2.14193235 3.91018344 -2.14193235 3.91018344 -2 6 C-0.68 6.66 0.64 7.32 2 8 C-24.80040342 8.32074951 -24.80040342 8.32074951 -35 6 C-35 5.67 -35 5.34 -35 5 C-34.37351562 4.87882812 -33.74703125 4.75765625 -33.1015625 4.6328125 C-32.28429687 4.46523438 -31.46703125 4.29765625 -30.625 4.125 C-29.81289063 3.96257812 -29.00078125 3.80015625 -28.1640625 3.6328125 C-25.81326077 3.13341068 -25.81326077 3.13341068 -24 1 C-16.24145603 -0.69918525 -7.88557957 -0.10226256 0 0 Z " fill="#E3BB6E" transform="translate(302,461)"/>
<path d="M0 0 C1.79244141 0.01740234 1.79244141 0.01740234 3.62109375 0.03515625 C5.41740234 0.04869141 5.41740234 0.04869141 7.25 0.0625 C8.17683594 0.07410156 9.10367187 0.08570313 10.05859375 0.09765625 C8.03116626 4.68604479 5.73802043 7.70126239 2.05859375 11.09765625 C1.39859375 11.75765625 0.73859375 12.41765625 0.05859375 13.09765625 C-2.55721104 12.77068065 -4.58218762 12.27726557 -6.94140625 11.09765625 C-6.66296875 10.13859375 -6.66296875 10.13859375 -6.37890625 9.16015625 C-6.23453125 8.47953125 -6.09015625 7.79890625 -5.94140625 7.09765625 C-6.27140625 6.76765625 -6.60140625 6.43765625 -6.94140625 6.09765625 C-3.41216202 0.11328559 -3.41216202 0.11328559 0 0 Z " fill="#CCAF80" transform="translate(328.94140625,518.90234375)"/>
<path d="M0 0 C0.33 0 0.66 0 1 0 C1.495 5.94 1.495 5.94 2 12 C-1.25763222 14.17175481 -2.22439213 14.46043998 -6 14 C-6.55268555 13.50532227 -7.10537109 13.01064453 -7.67480469 12.50097656 C-10.94644759 10.38904244 -14.00033394 10.60729224 -17.765625 10.671875 C-18.51785339 10.67374817 -19.27008179 10.67562134 -20.04510498 10.67755127 C-21.63542111 10.6842632 -23.22572096 10.69816076 -24.81591797 10.71875 C-27.22769861 10.74971368 -29.63882205 10.75970729 -32.05078125 10.765625 C-33.60157032 10.77480459 -35.15235284 10.78518338 -36.703125 10.796875 C-37.41486877 10.80112488 -38.12661255 10.80537476 -38.85992432 10.80975342 C-43.64155307 10.87660288 -48.26339086 11.33700758 -53 12 C-52.67 11.01 -52.34 10.02 -52 9 C-48.62482331 7.31241165 -44.80144401 7.85846642 -41.08984375 7.8671875 C-40.20720352 7.86623077 -39.32456329 7.86527405 -38.41517639 7.86428833 C-36.54818653 7.86360731 -34.68119431 7.86545615 -32.81420898 7.86962891 C-29.94574712 7.8749846 -27.07744139 7.86967801 -24.20898438 7.86328125 C-22.39843715 7.86394192 -20.58789003 7.86522285 -18.77734375 7.8671875 C-17.48207008 7.86415115 -17.48207008 7.86415115 -16.16062927 7.86105347 C-10.11495439 7.88504561 -10.11495439 7.88504561 -9 9 C-6.01110641 9.45765667 -3.01030352 9.70320951 0 10 C0 6.7 0 3.4 0 0 Z " fill="#382E20" transform="translate(329,496)"/>
<path d="M0 0 C3.96 0 7.92 0 12 0 C12 3.63 12 7.26 12 11 C8.04 11 4.08 11 0 11 C0 7.37 0 3.74 0 0 Z " fill="#BB9C67" transform="translate(228,528)"/>
<path d="M0 0 C7.26 0 14.52 0 22 0 C22 0.33 22 0.66 22 1 C18.7 1.33 15.4 1.66 12 2 C13.32 2.66 14.64 3.32 16 4 C15.67 5.32 15.34 6.64 15 8 C16.65 8 18.3 8 20 8 C20 8.33 20 8.66 20 9 C17.06225537 9.05390357 14.12549768 9.0936255 11.1875 9.125 C10.35412109 9.14175781 9.52074219 9.15851562 8.66210938 9.17578125 C7.85966797 9.18222656 7.05722656 9.18867187 6.23046875 9.1953125 C5.12288208 9.21102295 5.12288208 9.21102295 3.99291992 9.22705078 C2 9 2 9 -1 7 C-0.01 6.67 0.98 6.34 2 6 C1.34 5.01 0.68 4.02 0 3 C0 2.01 0 1.02 0 0 Z " fill="#D7B270" transform="translate(276,529)"/>
<path d="M0 0 C0.99 0 1.98 0 3 0 C3 3.63 3 7.26 3 11 C30.225 10.505 30.225 10.505 58 10 C54.9661699 12.0225534 54.31241136 12.25577087 50.89575195 12.31884766 C50.07512772 12.33871735 49.25450348 12.35858704 48.40901184 12.37905884 C47.52767075 12.39061005 46.64632965 12.40216125 45.73828125 12.4140625 C44.37959175 12.44311172 44.37959175 12.44311172 42.99345398 12.4727478 C40.09989849 12.53253542 37.2063032 12.57892568 34.3125 12.625 C32.35089409 12.66318054 30.38930494 12.70223231 28.42773438 12.7421875 C23.6186256 12.83823632 18.80943834 12.92227043 14 13 C14 13.33 14 13.66 14 14 C13.40832031 14.06058594 12.81664062 14.12117187 12.20703125 14.18359375 C8.76318281 14.54876528 5.39317337 14.91808888 2 15.625 C1.34 15.74875 0.68 15.8725 0 16 C-2.04698414 13.95301586 -1.70045693 9.69588759 -2 7 C-1.34 7 -0.68 7 0 7 C0 4.69 0 2.38 0 0 Z " fill="#3D3831" transform="translate(258,528)"/>
<path d="M0 0 C1.18613892 0.00785522 1.18613892 0.00785522 2.39624023 0.01586914 C3.67724609 0.02070312 3.67724609 0.02070312 4.98413086 0.02563477 C6.33087891 0.03820312 6.33087891 0.03820312 7.70483398 0.05102539 C8.6065332 0.05553711 9.50823242 0.06004883 10.43725586 0.06469727 C12.67234712 0.07652315 14.90730835 0.09300319 17.14233398 0.11352539 C16.76733398 2.05102539 16.76733398 2.05102539 16.14233398 4.11352539 C15.48233398 4.44352539 14.82233398 4.77352539 14.14233398 5.11352539 C14.14233398 4.45352539 14.14233398 3.79352539 14.14233398 3.11352539 C6.05700551 2.33422448 6.05700551 2.33422448 -1.10766602 5.42602539 C-2.01516602 6.31290039 -2.92266602 7.19977539 -3.85766602 8.11352539 C-10.51178029 11.30502526 -16.27339273 11.51394293 -23.57641602 11.40649414 C-24.67489868 11.4022493 -25.77338135 11.39800446 -26.90515137 11.39363098 C-30.38957962 11.376932 -33.87341463 11.33929535 -37.35766602 11.30102539 C-39.73005345 11.28596724 -42.10245002 11.27228082 -44.47485352 11.26000977 C-50.26932437 11.22705727 -56.06345279 11.17694574 -61.85766602 11.11352539 C-59.85766602 9.11352539 -59.85766602 9.11352539 -57.79489136 8.87301636 C-56.94661774 8.87745758 -56.09834412 8.8818988 -55.22436523 8.88647461 C-54.2635202 8.88662567 -53.30267517 8.88677673 -52.31271362 8.88693237 C-51.27309479 8.89725494 -50.23347595 8.90757751 -49.16235352 8.91821289 C-48.09977325 8.92104279 -47.03719299 8.92387268 -45.94241333 8.92678833 C-42.53905103 8.938009 -39.13594916 8.96311702 -35.73266602 8.98852539 C-33.42928439 8.99855275 -31.12589865 9.00767902 -28.82250977 9.01586914 C-23.16747256 9.03795446 -17.51258789 9.0714505 -11.85766602 9.11352539 C-11.85766602 8.45352539 -11.85766602 7.79352539 -11.85766602 7.11352539 C-9.21766602 6.45352539 -6.57766602 5.79352539 -3.85766602 5.11352539 C-3.52766602 3.79352539 -3.19766602 2.47352539 -2.85766602 1.11352539 C-1.85766602 0.11352539 -1.85766602 0.11352539 0 0 Z " fill="#2F2A24" transform="translate(323.857666015625,516.886474609375)"/>
<path d="M0 0 C14.85 0 29.7 0 45 0 C45.495 1.485 45.495 1.485 46 3 C46.66 3 47.32 3 48 3 C48.495 3.99 48.495 3.99 49 5 C49.66 5 50.32 5 51 5 C51 7.97 51 10.94 51 14 C50.34 14 49.68 14 49 14 C48.34 14.99 47.68 15.98 47 17 C46.01 17 45.02 17 44 17 C44 11.72 44 6.44 44 1 C29.48 1 14.96 1 0 1 C0 0.67 0 0.34 0 0 Z " fill="#434A53" transform="translate(396,514)"/>
<path d="M0 0 C2.97 0 5.94 0 9 0 C9.52849741 5.98963731 9.52849741 5.98963731 9 9 C6 11.5625 6 11.5625 3 13 C0.00675737 11.9024777 -0.84610901 11.32317108 -2.25 8.375 C-2.4975 7.59125 -2.745 6.8075 -3 6 C-3.66 6 -4.32 6 -5 6 C-4.34 4.68 -3.68 3.36 -3 2 C-2.34 2 -1.68 2 -1 2 C-0.67 1.34 -0.34 0.68 0 0 Z " fill="#C68F4A" transform="translate(251,557)"/>
<path d="M0 0 C1.14204391 -0.00021904 1.14204391 -0.00021904 2.30715942 -0.0004425 C4.8177579 0.00025284 7.32828171 0.00802752 9.83886719 0.01586914 C11.58192911 0.01773466 13.32499156 0.01915793 15.0680542 0.02015686 C19.65146334 0.02397145 24.2348407 0.03379272 28.8182373 0.04486084 C33.49698456 0.05509769 38.17573696 0.05965936 42.85449219 0.06469727 C52.03158947 0.07541593 61.20866318 0.09247967 70.38574219 0.11352539 C70.38574219 0.44352539 70.38574219 0.77352539 70.38574219 1.11352539 C69.58189087 1.11939163 68.77803955 1.12525787 67.9498291 1.13130188 C60.30222022 1.18967259 52.65492084 1.26199417 45.00759125 1.3492403 C41.07783636 1.39360171 37.14817704 1.43292852 33.21826172 1.45996094 C29.41196164 1.48634149 25.60603645 1.52697554 21.79997253 1.57671165 C20.36187982 1.59314948 18.92372263 1.60480502 17.48554993 1.6111393 C6.45848436 1.66452613 -4.23666689 2.67894184 -14.87902832 5.77168274 C-16.61425781 6.11352539 -16.61425781 6.11352539 -19.61425781 5.11352539 C-18.36690214 4.46259949 -17.11623949 3.8180087 -15.86425781 3.17602539 C-15.16816406 2.81637695 -14.47207031 2.45672852 -13.75488281 2.08618164 C-9.21009361 0.02112231 -4.93298253 -0.02480562 0 0 Z " fill="#443522" transform="translate(276.6142578125,469.886474609375)"/>
<path d="M0 0 C0.33 0 0.66 0 1 0 C1.01213028 1.44033096 1.01213028 1.44033096 1.02450562 2.90975952 C1.10188396 11.94496848 1.18960187 20.9800253 1.28752708 30.01503563 C1.33754069 34.66038381 1.38387009 39.30570869 1.421875 43.95117188 C1.45866408 48.43164384 1.50500624 52.91192316 1.55806351 57.39223099 C1.57664149 59.104271 1.59173678 60.81635236 1.60334396 62.52845383 C1.62014852 64.92070122 1.64916852 67.31250412 1.68115234 69.70458984 C1.68331253 70.41740616 1.68547272 71.13022247 1.68769836 71.86463928 C1.65113222 75.87885915 1.65113222 75.87885915 4 79 C3.8125 81 3.8125 81 3 83 C1.515 83.99 1.515 83.99 0 85 C0 83.35 0 81.7 0 80 C-5.28 80 -10.56 80 -16 80 C-16 79.67 -16 79.34 -16 79 C-10.72 79 -5.44 79 0 79 C0 52.93 0 26.86 0 0 Z " fill="#292E37" transform="translate(537,499)"/>
<path d="M0 0 C0.66 0.33 1.32 0.66 2 1 C1.01 1.33 0.02 1.66 -1 2 C-1 2.66 -1 3.32 -1 4 C-5.42833463 6.95222308 -10.59413747 6.45261921 -15.60839844 5.50927734 C-19.56305242 4.91545297 -23.47090887 4.77174227 -27.4609375 4.68359375 C-28.25150543 4.66281265 -29.04207336 4.64203156 -29.8565979 4.62062073 C-32.36265017 4.55564418 -34.86880024 4.49648357 -37.375 4.4375 C-39.08204105 4.39426532 -40.78907249 4.35064951 -42.49609375 4.30664062 C-46.66396426 4.2000166 -50.83193239 4.09860559 -55 4 C-55 7.3 -55 10.6 -55 14 C-55.33 14 -55.66 14 -56 14 C-56 10.37 -56 6.74 -56 3 C-53.72186401 2.970271 -53.72186401 2.970271 -51.39770508 2.93994141 C-45.76000459 2.86383834 -40.12256059 2.77512768 -34.48510742 2.68261719 C-32.04570583 2.64434698 -29.60624818 2.6094907 -27.16674805 2.578125 C-23.65913873 2.53243255 -20.15191466 2.47444395 -16.64453125 2.4140625 C-15.55477493 2.40251129 -14.46501862 2.39096008 -13.34223938 2.37905884 C-12.32155869 2.35918915 -11.30087799 2.33931946 -10.24926758 2.31884766 C-9.35436111 2.30552399 -8.45945465 2.29220032 -7.53742981 2.2784729 C-4.91255933 2.10521567 -4.91255933 2.10521567 -2.29692078 0.91757202 C-1.53893692 0.61477325 -0.78095306 0.31197449 0 0 Z " fill="#AF956E" transform="translate(317,525)"/>
<path d="M0 0 C0.33 0 0.66 0 1 0 C0.03644647 14.78132118 0.03644647 14.78132118 -1 21 C1.52363988 20.37466625 1.52363988 20.37466625 4 19 C4.89386164 16.45224694 4.89386164 16.45224694 5 14 C5.33 14 5.66 14 6 14 C6.04241723 16.33294775 6.04092937 18.66702567 6 21 C5 22 5 22 1.5625 22.125 C-2 22 -2 22 -4 21 C-4 21.66 -4 22.32 -4 23 C-0.37 23 3.26 23 7 23 C7 23.33 7 23.66 7 24 C3.04 24 -0.92 24 -5 24 C-5.41954857 15.46917899 -4.07265297 7.59638315 0 0 Z " fill="#C59E67" transform="translate(233,486)"/>
<path d="M0 0 C2.64 0 5.28 0 8 0 C8 3.96 8 7.92 8 12 C5.36 12 2.72 12 0 12 C-1.16063604 7.74433453 -0.76173392 4.3164922 0 0 Z " fill="#DBB26E" transform="translate(320,494)"/>
<path d="M0 0 C0.66 0.33 1.32 0.66 2 1 C2.10380005 4.63300168 1.73316291 7.33418546 1 11 C11.56 11 22.12 11 33 11 C33 11.33 33 11.66 33 12 C19.8 12 6.6 12 -7 12 C-5.05372161 7.13430402 -3.07915761 4.13255363 0 0 Z " fill="#222831" transform="translate(614,550)"/>
<path d="M0 0 C1.9375 0.3125 1.9375 0.3125 4 1 C4.33 1.99 4.66 2.98 5 4 C4.67 4.33 4.34 4.66 4 5 C3.855625 6.155 3.71125 7.31 3.5625 8.5 C3.376875 9.655 3.19125 10.81 3 12 C2.01 12.495 2.01 12.495 1 13 C0.67 26.2 0.34 39.4 0 53 C-0.33 53 -0.66 53 -1 53 C-1.02529174 45.77344508 -1.04284219 38.5469015 -1.05493164 31.3203125 C-1.05996989 28.86034722 -1.0668006 26.40038495 -1.07543945 23.94042969 C-1.08752723 20.41079975 -1.09323329 16.88120931 -1.09765625 13.3515625 C-1.10281754 12.24632233 -1.10797882 11.14108215 -1.11329651 10.00234985 C-1.11337204 8.98144257 -1.11344757 7.96053528 -1.11352539 6.90869141 C-1.115746 6.00712311 -1.11796661 5.10555481 -1.12025452 4.17666626 C-1 2 -1 2 0 0 Z " fill="#262C35" transform="translate(715,524)"/>
<path d="M0 0 C1.37478516 0.01740234 1.37478516 0.01740234 2.77734375 0.03515625 C3.69644531 0.04417969 4.61554688 0.05320312 5.5625 0.0625 C6.27277344 0.07410156 6.98304688 0.08570313 7.71484375 0.09765625 C7.71484375 0.75765625 7.71484375 1.41765625 7.71484375 2.09765625 C8.70484375 2.42765625 9.69484375 2.75765625 10.71484375 3.09765625 C11.70484375 3.42765625 12.69484375 3.75765625 13.71484375 4.09765625 C13.71484375 4.75765625 13.71484375 5.41765625 13.71484375 6.09765625 C15.03484375 6.42765625 16.35484375 6.75765625 17.71484375 7.09765625 C12.10484375 7.09765625 6.49484375 7.09765625 0.71484375 7.09765625 C0.38484375 6.10765625 0.05484375 5.11765625 -0.28515625 4.09765625 C-1.78501234 2.43055279 -1.78501234 2.43055279 -3.28515625 1.09765625 C-2.28515625 0.09765625 -2.28515625 0.09765625 0 0 Z " fill="#D6A963" transform="translate(290.28515625,529.90234375)"/>
<path d="M0 0 C2.45898655 -0.08076963 4.91533742 -0.14037143 7.375 -0.1875 C8.07367188 -0.21263672 8.77234375 -0.23777344 9.4921875 -0.26367188 C11.5234375 -0.29296875 11.5234375 -0.29296875 15 0 C17 3 17 3 17 8 C13.7 8 10.4 8 7 8 C6.67 7.01 6.34 6.02 6 5 C6.33 4.34 6.66 3.68 7 3 C4.69 2.34 2.38 1.68 0 1 C0 0.67 0 0.34 0 0 Z " fill="#E2B970" transform="translate(329,461)"/>
<path d="M0 0 C0.79075928 0.00523682 1.58151855 0.01047363 2.39624023 0.01586914 C3.67724609 0.02070313 3.67724609 0.02070313 4.98413086 0.02563477 C5.88196289 0.03401367 6.77979492 0.04239258 7.70483398 0.05102539 C8.6065332 0.05553711 9.50823242 0.06004883 10.43725586 0.06469727 C12.67234712 0.07652315 14.90730835 0.09300319 17.14233398 0.11352539 C17.14233398 0.44352539 17.14233398 0.77352539 17.14233398 1.11352539 C16.06983398 1.34040039 14.99733398 1.56727539 13.89233398 1.80102539 C4.84244278 4.10754634 -2.95741644 7.62979864 -10.11547852 13.66040039 C-11.85766602 15.11352539 -11.85766602 15.11352539 -13.85766602 16.11352539 C-13.28421664 13.24627853 -12.99621451 12.25207389 -10.85766602 10.11352539 C-9.86766602 10.11352539 -8.87766602 10.11352539 -7.85766602 10.11352539 C-8.18766602 9.12352539 -8.51766602 8.13352539 -8.85766602 7.11352539 C-7.72329102 6.65977539 -6.58891602 6.20602539 -5.42016602 5.73852539 C-1.8104491 4.54256733 -1.8104491 4.54256733 -0.85766602 2.11352539 C-1.51766602 1.78352539 -2.17766602 1.45352539 -2.85766602 1.11352539 C-1.85766602 0.11352539 -1.85766602 0.11352539 0 0 Z " fill="#262820" transform="translate(254.857666015625,457.886474609375)"/>
<path d="M0 0 C5.45769811 -0.11138159 10.61509359 0.08342019 16 1 C16 3.31 16 5.62 16 8 C12.04 8 8.08 8 4 8 C4.33 5.69 4.66 3.38 5 1 C3.35 1 1.7 1 0 1 C0 0.67 0 0.34 0 0 Z " fill="#DAB066" transform="translate(320,461)"/>
<path d="M0 0 C0.99 0.33 1.98 0.66 3 1 C2.32904297 1.69222656 2.32904297 1.69222656 1.64453125 2.3984375 C-6.69760675 11.39869726 -9.72398388 19.84927933 -11 32 C-14.63 32 -18.26 32 -22 32 C-22 31.34 -22 30.68 -22 30 C-19.03 30 -16.06 30 -13 30 C-12.95101562 29.00097656 -12.90203125 28.00195312 -12.8515625 26.97265625 C-12.77679688 25.68230469 -12.70203125 24.39195312 -12.625 23.0625 C-12.52058594 21.13083984 -12.52058594 21.13083984 -12.4140625 19.16015625 C-12.27742187 18.11730469 -12.14078125 17.07445312 -12 16 C-11.34 15.67 -10.68 15.34 -10 15 C-9.06606559 13.344389 -8.19897217 11.65049478 -7.375 9.9375 C-6.92898437 9.01839844 -6.48296875 8.09929687 -6.0234375 7.15234375 C-5.51683594 6.08693359 -5.51683594 6.08693359 -5 5 C-4.34 5 -3.68 5 -3 5 C-3 4.01 -3 3.02 -3 2 C-2.01 1.34 -1.02 0.68 0 0 Z " fill="#BC9D73" transform="translate(251,477)"/>
<path d="M0 0 C-4.07298065 4.07298065 -10.00693278 4.12925616 -15.49804688 4.13525391 C-17.57186767 4.0934393 -19.64547771 4.03999074 -21.71875 3.9765625 C-22.81723267 3.95153656 -23.91571533 3.92651062 -25.04748535 3.90072632 C-28.53199379 3.8190126 -32.01589363 3.72223535 -35.5 3.625 C-37.87237153 3.56671077 -40.24476754 3.50940862 -42.6171875 3.453125 C-48.41179043 3.3135066 -54.20596902 3.16154183 -60 3 C-60 2.67 -60 2.34 -60 2 C-59.05159492 1.9845388 -59.05159492 1.9845388 -58.08403015 1.96876526 C-51.51432876 1.86073996 -44.94476562 1.74613861 -38.37524414 1.62768555 C-35.92214851 1.58432398 -33.46902247 1.54264981 -31.01586914 1.50268555 C-27.49355899 1.44501279 -23.97140216 1.38130948 -20.44921875 1.31640625 C-18.79910042 1.29133751 -18.79910042 1.29133751 -17.11564636 1.26576233 C-16.09481461 1.24581711 -15.07398285 1.22587189 -14.0222168 1.20532227 C-12.67319527 1.18200584 -12.67319527 1.18200584 -11.29692078 1.15821838 C-7.38109236 0.88848507 -4.0402482 -0.08978329 0 0 Z " fill="#241F1F" transform="translate(322,538)"/>
<path d="M0 0 C4.62 0 9.24 0 14 0 C12.68 0.33 11.36 0.66 10 1 C10 1.66 10 2.32 10 3 C7.36 3 4.72 3 2 3 C2 4.65 2 6.3 2 8 C7.94 8.33 13.88 8.66 20 9 C20 9.33 20 9.66 20 10 C13.4 10 6.8 10 0 10 C0 6.7 0 3.4 0 0 Z " fill="#DEC28C" transform="translate(262,529)"/>
<path d="M0 0 C0 3 0 3 -1 5 C-1.66 5 -2.32 5 -3 5 C-3 5.66 -3 6.32 -3 7 C-3.66 7 -4.32 7 -5 7 C-5 8.32 -5 9.64 -5 11 C-2.03 11.495 -2.03 11.495 1 12 C1.33 11.01 1.66 10.02 2 9 C2.99 8.67 3.98 8.34 5 8 C5.33 8.66 5.66 9.32 6 10 C3.59384348 12.65506927 1.82040233 13.92164697 -1.78125 14.265625 C-4.53033855 14.25145444 -7.25655321 14.17296687 -10 14 C-9.72777707 10.09813806 -9.27669035 8.32155906 -6.6875 5.3125 C-4.51059821 3.43935195 -2.34754817 1.65197834 0 0 Z " fill="#BBA780" transform="translate(271,496)"/>
<path d="M0 0 C3.6170061 3.10029095 5.75372098 6.67444333 6.26156616 11.46990967 C6.34681458 14.49216209 6.33701598 17.50029329 6.29296875 20.5234375 C6.28872391 21.62475006 6.28447906 22.72606262 6.28010559 23.86074829 C6.2633615 27.36575133 6.22571614 30.87017179 6.1875 34.375 C6.17244769 36.75650209 6.15876024 39.13801323 6.14648438 41.51953125 C6.11347193 47.34655172 6.06331464 53.17323423 6 59 C5.67 59 5.34 59 5 59 C4.67 42.17 4.34 25.34 4 8 C3.34 8 2.68 8 2 8 C2 7.34 2 6.68 2 6 C1.34 6 0.68 6 0 6 C0 4.02 0 2.04 0 0 Z " fill="#494F57" transform="translate(748,519)"/>
<path d="M0 0 C1.98 0 3.96 0 6 0 C6 0.66 6 1.32 6 2 C4.63875 2.7734375 4.63875 2.7734375 3.25 3.5625 C-1.13266728 6.27310701 -2.21275441 10.32566537 -4 15 C-0.37 15 3.26 15 7 15 C7 15.66 7 16.32 7 17 C5.22992286 17.08114106 3.45877902 17.13925505 1.6875 17.1875 C0.70136719 17.22230469 -0.28476562 17.25710938 -1.30078125 17.29296875 C-4 17 -4 17 -5.85546875 15.63671875 C-7 14 -7 14 -7 11.625 C-5.70862728 8.23514662 -3.57635016 6.51194141 -1 4 C-0.13880866 1.82653432 -0.13880866 1.82653432 0 0 Z " fill="#28271E" transform="translate(265,495)"/>
<path d="M0 0 C0.70382812 0.00644531 1.40765625 0.01289063 2.1328125 0.01953125 C6.87217479 0.08974402 11.45354125 0.40892354 16.125 1.1875 C16.125 1.5175 16.125 1.8475 16.125 2.1875 C15.15675293 2.20937378 15.15675293 2.20937378 14.16894531 2.23168945 C11.23703427 2.3062787 8.30624835 2.4029024 5.375 2.5 C4.35921875 2.52255859 3.3434375 2.54511719 2.296875 2.56835938 C1.3171875 2.60380859 0.3375 2.63925781 -0.671875 2.67578125 C-2.02297363 2.71505737 -2.02297363 2.71505737 -3.40136719 2.75512695 C-6.29641266 3.26115987 -7.59759739 4.39299438 -9.875 6.1875 C-13.125 6.375 -13.125 6.375 -15.875 6.1875 C-15.25 4.3125 -15.25 4.3125 -13.875 2.1875 C-9.25169822 0.18917529 -4.96368551 -0.0940092 0 0 Z " fill="#D9BC84" transform="translate(271.875,459.8125)"/>
<path d="M0 0 C6.6 0 13.2 0 20 0 C20 0.33 20 0.66 20 1 C14.06 1 8.12 1 2 1 C5.25555604 7.20826966 8.25465977 12.83595328 13 18 C11.68 18 10.36 18 9 18 C6 13.92857143 6 13.92857143 6 11 C5.38125 10.95875 4.7625 10.9175 4.125 10.875 C2 10 2 10 0.75 7.1875 C0 4 0 4 0 0 Z " fill="#413428" transform="translate(240,556)"/>
<path d="M0 0 C0.66 0.33 1.32 0.66 2 1 C1.00305041 4.35337589 0.41434947 5.72713571 -2.5625 7.6875 C-3.7690625 8.3371875 -3.7690625 8.3371875 -5 9 C-5.33 9.66 -5.66 10.32 -6 11 C-5.34 11 -4.68 11 -4 11 C-4.66 12.98 -5.32 14.96 -6 17 C-6.66 16.67 -7.32 16.34 -8 16 C-10.09821215 16.39938767 -10.09821215 16.39938767 -12 17 C-10.67191342 11.85557267 -8.5159936 8.95271122 -4.875 5.125 C-4.40707031 4.62742187 -3.93914062 4.12984375 -3.45703125 3.6171875 C-2.31322699 2.40335441 -1.15778377 1.20050642 0 0 Z " fill="#BF9D6A" transform="translate(246,469)"/>
<path d="M0 0 C0.33 0.99 0.66 1.98 1 3 C0.34 3.66 -0.32 4.32 -1 5 C-0.67 5.66 -0.34 6.32 0 7 C-0.33 7.99 -0.66 8.98 -1 10 C-1.598125 10.2475 -2.19625 10.495 -2.8125 10.75 C-5.29427669 12.16815811 -5.752708 13.08900819 -7.0625 15.5625 C-9 19 -9 19 -12 20 C-12.63989258 18.19555664 -12.63989258 18.19555664 -13 16 C-11.30292531 13.62764951 -9.64254557 11.57530506 -7.6875 9.4375 C-3.62260886 4.89633415 -3.62260886 4.89633415 0 0 Z " fill="#323943" transform="translate(637,522)"/>
<path d="M0 0 C0.99 0.66 1.98 1.32 3 2 C3 3.32 3 4.64 3 6 C-1.33420699 8.03165952 -5.28596212 8.52060632 -10 9 C-10.33 8.01 -10.66 7.02 -11 6 C-10.01 6 -9.02 6 -8 6 C-8.66 5.34 -9.32 4.68 -10 4 C-7.24072656 1.24072656 -4.78845948 1.48216757 -1 1 C-0.67 0.67 -0.34 0.34 0 0 Z " fill="#E1B46B" transform="translate(263,464)"/>
<path d="M0 0 C1.00023193 0.00523682 2.00046387 0.01047363 3.03100586 0.01586914 C4.1105957 0.0190918 5.19018555 0.02231445 6.30249023 0.02563477 C8.00695312 0.03820312 8.00695312 0.03820312 9.74584961 0.05102539 C11.45611328 0.05779297 11.45611328 0.05779297 13.20092773 0.06469727 C16.02845312 0.07652792 18.85587601 0.09301129 21.68334961 0.11352539 C21.68334961 0.44352539 21.68334961 0.77352539 21.68334961 1.11352539 C19.70334961 1.11352539 17.72334961 1.11352539 15.68334961 1.11352539 C15.68334961 1.77352539 15.68334961 2.43352539 15.68334961 3.11352539 C14.39407969 3.47631995 13.10181689 3.82849237 11.80834961 4.17602539 C11.08905273 4.37325195 10.36975586 4.57047852 9.62866211 4.77368164 C7.68334961 5.11352539 7.68334961 5.11352539 5.68334961 4.11352539 C5.68334961 3.45352539 5.68334961 2.79352539 5.68334961 2.11352539 C5.02334961 2.11352539 4.36334961 2.11352539 3.68334961 2.11352539 C3.35334961 3.10352539 3.02334961 4.09352539 2.68334961 5.11352539 C0.68334961 3.78019206 -1.31665039 2.44685872 -3.31665039 1.11352539 C-2.31665039 0.11352539 -2.31665039 0.11352539 0 0 Z " fill="#DBBB7D" transform="translate(278.316650390625,493.886474609375)"/>
<path d="M0 0 C4.62 0 9.24 0 14 0 C13.34 1.32 12.68 2.64 12 4 C12 4.66 12 5.32 12 6 C13.32 6.66 14.64 7.32 16 8 C10.72 8 5.44 8 0 8 C0 7.67 0 7.34 0 7 C1.65 6.67 3.3 6.34 5 6 C5 4.68 5 3.36 5 2 C3.35 1.67 1.7 1.34 0 1 C0 0.67 0 0.34 0 0 Z " fill="#D8B16A" transform="translate(288,461)"/>
<path d="M0 0 C0 0.99 0 1.98 0 3 C-0.99 3 -1.98 3 -3 3 C-3 3.66 -3 4.32 -3 5 C-4.31787285 6.02028865 -5.65210653 7.01971384 -7 8 C-7.33 8.66 -7.66 9.32 -8 10 C-9.65 9.67 -11.3 9.34 -13 9 C-12.67 7.68 -12.34 6.36 -12 5 C-11.34 5 -10.68 5 -10 5 C-10 4.34 -10 3.68 -10 3 C-6.58168085 0.4606772 -4.24223102 -0.3636198 0 0 Z " fill="#DEB069" transform="translate(335,521)"/>
<path d="M0 0 C0.33 0 0.66 0 1 0 C1.33 1.65 1.66 3.3 2 5 C2.66 4.67 3.32 4.34 4 4 C5.26237731 6.52475462 5.09856404 8.31200466 5.0625 11.125 C5.05347656 12.03507813 5.04445313 12.94515625 5.03515625 13.8828125 C5.02355469 14.58148437 5.01195312 15.28015625 5 16 C4.67 15.34 4.34 14.68 4 14 C3.34 14 2.68 14 2 14 C1.67 14.99 1.34 15.98 1 17 C0.67 17 0.34 17 0 17 C0 11.39 0 5.78 0 0 Z " fill="#2B323C" transform="translate(648,562)"/>
<path d="M0 0 C2.31 0 4.62 0 7 0 C6.67 1.32 6.34 2.64 6 4 C8.31 4 10.62 4 13 4 C11.0625 6.0625 11.0625 6.0625 8 8 C4.91937821 8.05666696 2.01534349 7.60438257 -1 7 C-0.01 6.34 0.98 5.68 2 5 C1.34 3.35 0.68 1.7 0 0 Z " fill="#E0B872" transform="translate(276,530)"/>
<path d="M0 0 C1.65 1.65 3.3 3.3 5 5 C4.01 5.33 3.02 5.66 2 6 C1.29848848 7.3153341 0.63474075 8.65117592 0 10 C-1.625 11.75 -1.625 11.75 -3 13 C-4.22222222 5.66666667 -4.22222222 5.66666667 -3.1875 2.5625 C-2 1 -2 1 0 0 Z " fill="#EFF1F1" transform="translate(718,511)"/>
<path d="M0 0 C1.30579112 2.16499197 2.05647429 3.45230596 1.79296875 6.0078125 C1.49326172 7.05582031 1.49326172 7.05582031 1.1875 8.125 C-0.08468832 13.0578076 -0.59782247 17.93044644 -1 23 C-3 21 -3 21 -3.1953125 18.8359375 C-3.17210937 18.02382813 -3.14890625 17.21171875 -3.125 16.375 C-3.10695312 15.55773437 -3.08890625 14.74046875 -3.0703125 13.8984375 C-3.04710937 13.27195312 -3.02390625 12.64546875 -3 12 C-3.33 12 -3.66 12 -4 12 C-4 10.02 -4 8.04 -4 6 C-3.34 5.67 -2.68 5.34 -2 5 C-1.27840576 3.35636866 -0.60648579 1.68949614 0 0 Z " fill="#232221" transform="translate(229,488)"/>
<path d="M0 0 C2.625 -0.1875 2.625 -0.1875 5 0 C4.57074219 0.70511719 4.14148438 1.41023438 3.69921875 2.13671875 C2.00242677 4.99591074 0.39708607 7.88981902 -1.1875 10.8125 C-1.71730469 11.78832031 -2.24710938 12.76414062 -2.79296875 13.76953125 C-3.19128906 14.50558594 -3.58960938 15.24164063 -4 16 C-4.33 16 -4.66 16 -5 16 C-5.55811184 10.04680699 -3.24290174 4.8643526 0 0 Z " fill="#2F2721" transform="translate(236,474)"/>
<path d="M0 0 C2.13604308 3.20406462 2.24208908 3.99600747 2.1953125 7.66796875 C2.18886719 8.56064453 2.18242187 9.45332031 2.17578125 10.37304688 C2.15902344 11.30181641 2.14226562 12.23058594 2.125 13.1875 C2.11597656 14.12787109 2.10695313 15.06824219 2.09765625 16.03710938 C2.07409056 18.35832968 2.04119116 20.67903644 2 23 C1.01 23.33 0.02 23.66 -1 24 C-1.66 23.67 -2.32 23.34 -3 23 C-2.67 22.34 -2.34 21.68 -2 21 C-1.34 21.33 -0.68 21.66 0 22 C0 14.74 0 7.48 0 0 Z " fill="#3C3127" transform="translate(260,557)"/>
<path d="M0 0 C2.97 0 5.94 0 9 0 C9 2.97 9 5.94 9 9 C8.01 9 7.02 9 6 9 C5.67 7.68 5.34 6.36 5 5 C4.34 5 3.68 5 3 5 C3 4.34 3 3.68 3 3 C2.34 3 1.68 3 1 3 C0.67 2.01 0.34 1.02 0 0 Z " fill="#98764D" transform="translate(251,557)"/>
<path d="M0 0 C0.33 0 0.66 0 1 0 C1 3.63 1 7.26 1 11 C4.96 11 8.92 11 13 11 C13 11.33 13 11.66 13 12 C9.37 12 5.74 12 2 12 C2 12.99 2 13.98 2 15 C0.68 15.33 -0.64 15.66 -2 16 C-1.85975781 13.52039864 -1.7130815 11.04147598 -1.5625 8.5625 C-1.52318359 7.85544922 -1.48386719 7.14839844 -1.44335938 6.41992188 C-1.11328125 1.11328125 -1.11328125 1.11328125 0 0 Z " fill="#292925" transform="translate(227,528)"/>
<path d="M0 0 C0.99 0 1.98 0 3 0 C1.82612037 4.98898842 -1.18312389 6.98658122 -5.125 9.86328125 C-7 11 -7 11 -9 11 C-7.63029745 8.04987143 -6.17390875 5.4347778 -4 3 C-3.01 3 -2.02 3 -1 3 C-0.67 2.01 -0.34 1.02 0 0 Z " fill="#272E39" transform="translate(514,550)"/>
<path d="M0 0 C1.18613892 0.00785522 1.18613892 0.00785522 2.39624023 0.01586914 C3.67724609 0.02070312 3.67724609 0.02070312 4.98413086 0.02563477 C5.88196289 0.03401367 6.77979492 0.04239258 7.70483398 0.05102539 C8.6065332 0.05553711 9.50823242 0.06004883 10.43725586 0.06469727 C12.67234712 0.07652315 14.90730835 0.09300319 17.14233398 0.11352539 C16.76733398 2.05102539 16.76733398 2.05102539 16.14233398 4.11352539 C15.15233398 4.60852539 15.15233398 4.60852539 14.14233398 5.11352539 C14.14233398 4.45352539 14.14233398 3.79352539 14.14233398 3.11352539 C12.18429892 3.05963452 10.2258449 3.02078322 8.26733398 2.98852539 C7.17678711 2.96532227 6.08624023 2.94211914 4.96264648 2.91821289 C2.00522888 2.81292005 2.00522888 2.81292005 0.14233398 5.11352539 C-1.17766602 5.11352539 -2.49766602 5.11352539 -3.85766602 5.11352539 C-2.74082081 0.16749661 -2.74082081 0.16749661 0 0 Z " fill="#3B382C" transform="translate(323.857666015625,516.886474609375)"/>
<path d="M0 0 C1.30574977 3.73334089 0.7601248 6.77074951 0.125 10.625 C-0.05804688 11.77226562 -0.24109375 12.91953125 -0.4296875 14.1015625 C-1 17 -1 17 -2 19 C1.63 19 5.26 19 9 19 C9 19.33 9 19.66 9 20 C5.04 20 1.08 20 -3 20 C-3.35482211 12.78528371 -2.1591338 6.87581298 0 0 Z " fill="#8C7758" transform="translate(231,490)"/>
<path d="M0 0 C0.33 0.99 0.66 1.98 1 3 C-0.21484375 4.82421875 -0.21484375 4.82421875 -1.9375 6.6875 C-2.50339844 7.31011719 -3.06929687 7.93273437 -3.65234375 8.57421875 C-4.09707031 9.04472656 -4.54179688 9.51523437 -5 10 C-5.66 9.67 -6.32 9.34 -7 9 C-7.36363636 3.54545455 -7.36363636 3.54545455 -5.75 1.125 C-4 0 -4 0 0 0 Z " fill="#ECF0F2" transform="translate(623,537)"/>
<path d="M0 0 C0 0.33 0 0.66 0 1 C-1.10859375 1.20496094 -2.2171875 1.40992188 -3.359375 1.62109375 C-4.82292867 1.89316462 -6.28646967 2.16530362 -7.75 2.4375 C-8.47960937 2.57220703 -9.20921875 2.70691406 -9.9609375 2.84570312 C-14.040803 3.58709106 -14.040803 3.58709106 -18.05566406 4.60961914 C-20 5 -20 5 -23 4 C-15.58521483 -0.84230868 -8.5168236 -0.39922611 0 0 Z " fill="#352E25" transform="translate(280,471)"/>
<path d="M0 0 C12.21 0 24.42 0 37 0 C36.67 0.99 36.34 1.98 36 3 C35.32493408 2.84152588 34.64986816 2.68305176 33.9543457 2.51977539 C30.52081552 1.91569426 27.21572541 1.78399209 23.73046875 1.68359375 C23.04946609 1.66281265 22.36846344 1.64203156 21.66682434 1.62062073 C19.50714492 1.55562122 17.34735154 1.49647288 15.1875 1.4375 C13.71678544 1.3942675 12.24608209 1.35065175 10.77539062 1.30664062 C7.18371283 1.19999141 3.59190918 1.09858651 0 1 C0 0.67 0 0.34 0 0 Z " fill="#30343F" transform="translate(586,514)"/>
<path d="M0 0 C0.66 0.33 1.32 0.66 2 1 C1.42680175 4.32454983 0.45672125 5.73981645 -2 8 C-2.99 9.485 -2.99 9.485 -4 11 C-4.66 10.34 -5.32 9.68 -6 9 C-6.99 9.66 -7.98 10.32 -9 11 C-7.59155282 7.78475695 -5.89655214 5.67816132 -3.375 3.25 C-2.74335938 2.63640625 -2.11171875 2.0228125 -1.4609375 1.390625 C-0.73777344 0.70226562 -0.73777344 0.70226562 0 0 Z " fill="#DCDFE3" transform="translate(472,504)"/>
<path d="M0 0 C2.64 0 5.28 0 8 0 C8 1.65 8 3.3 8 5 C5.36 5 2.72 5 0 5 C0 3.35 0 1.7 0 0 Z " fill="#F0C67B" transform="translate(264,532)"/>
<path d="M0 0 C0.93779297 0.04833984 1.87558594 0.09667969 2.84179688 0.14648438 C4.30649414 0.2305957 4.30649414 0.2305957 5.80078125 0.31640625 C6.78884766 0.36861328 7.77691406 0.42082031 8.79492188 0.47460938 C11.23469801 0.60425931 13.6740623 0.73922367 16.11328125 0.87890625 C16.11328125 1.20890625 16.11328125 1.53890625 16.11328125 1.87890625 C14.52 1.96978516 14.52 1.96978516 12.89453125 2.0625 C2.47613022 2.67160863 2.47613022 2.67160863 -7.88671875 3.87890625 C-7.88671875 2.88890625 -7.88671875 1.89890625 -7.88671875 0.87890625 C-4.85537491 -0.1315417 -3.14275932 -0.17142324 0 0 Z " fill="#E1C087" transform="translate(271.88671875,467.12109375)"/>
<path d="M0 0 C-2.12907492 2.12907492 -4.3671784 3.32881073 -6.98046875 4.78125 C-10.51653075 6.91519844 -13.74565447 9.46414634 -17 12 C-16.42655063 9.13275314 -16.1385485 8.1385485 -14 6 C-13.01 6 -12.02 6 -11 6 C-11.33 5.01 -11.66 4.02 -12 3 C-4.71428571 -0.42857143 -4.71428571 -0.42857143 0 0 Z " fill="#2F2D25" transform="translate(258,462)"/>
<path d="M0 0 C0.99 0.33 1.98 0.66 3 1 C1.6875 3.5 1.6875 3.5 0 6 C-0.99 6 -1.98 6 -3 6 C-3 6.99 -3 7.98 -3 9 C-2.01 9.33 -1.02 9.66 0 10 C0 10.66 0 11.32 0 12 C-1.98 12 -3.96 12 -6 12 C-6.33 11.01 -6.66 10.02 -7 9 C-6.67 8.34 -6.34 7.68 -6 7 C-5.34 7 -4.68 7 -4 7 C-4 6.34 -4 5.68 -4 5 C-2 3 -2 3 0 2 C0 1.34 0 0.68 0 0 Z " fill="#E0BA77" transform="translate(272,496)"/>
<path d="M0 0 C0 0.66 0 1.32 0 2 C-1.20398438 2.13277344 -2.40796875 2.26554687 -3.6484375 2.40234375 C-5.22398085 2.5805302 -6.79950047 2.7589265 -8.375 2.9375 C-9.1690625 3.02451172 -9.963125 3.11152344 -10.78125 3.20117188 C-15.02255001 3.6038935 -15.02255001 3.6038935 -19 5 C-18.67 4.01 -18.34 3.02 -18 2 C-12.33657477 -0.36397437 -6.01978696 -0.19110435 0 0 Z " fill="#E0BE81" transform="translate(292,501)"/>
<path d="M0 0 C-0.598125 0.268125 -1.19625 0.53625 -1.8125 0.8125 C-4.08528996 2.04630026 -5.36316292 3.00732877 -7 5 C-7.78798055 7.49443774 -7.78798055 7.49443774 -8.1875 10.1875 C-8.34605469 11.08855469 -8.50460937 11.98960937 -8.66796875 12.91796875 C-8.83232422 13.94857422 -8.83232422 13.94857422 -9 15 C-9.33 15 -9.66 15 -10 15 C-10.62739631 6.0247473 -10.62739631 6.0247473 -8.125 1.9375 C-5.00887366 -0.90367401 -3.94805594 -1.18441678 0 0 Z " fill="#D6DBDF" transform="translate(670,467)"/>
<path d="M0 0 C0.66 0.33 1.32 0.66 2 1 C2 2.65 2 4.3 2 6 C-1.3 6 -4.6 6 -8 6 C-8.33 5.01 -8.66 4.02 -9 3 C-6.03 3 -3.06 3 0 3 C0 2.01 0 1.02 0 0 Z " fill="#DCBB82" transform="translate(344,463)"/>
<path d="M0 0 C0.66 0.66 1.32 1.32 2 2 C1.8125 4 1.8125 4 1 6 C0.01 6.66 -0.98 7.32 -2 8 C-2 6.35 -2 4.7 -2 3 C-7.28 3 -12.56 3 -18 3 C-18 2.67 -18 2.34 -18 2 C-16.17662109 1.90912109 -16.17662109 1.90912109 -14.31640625 1.81640625 C-12.73175772 1.73201668 -11.14712298 1.6473679 -9.5625 1.5625 C-8.76005859 1.52318359 -7.95761719 1.48386719 -7.13085938 1.44335938 C-3.24760439 1.5945704 -3.24760439 1.5945704 0 0 Z " fill="#202833" transform="translate(539,576)"/>
<path d="M0 0 C0 3.3 0 6.6 0 10 C-0.33 10 -0.66 10 -1 10 C-1.66 7.36 -2.32 4.72 -3 2 C-8.28 2 -13.56 2 -19 2 C-19 1.67 -19 1.34 -19 1 C-16.39590255 0.83218705 -13.7917318 0.66570349 -11.1875 0.5 C-10.08051758 0.42845703 -10.08051758 0.42845703 -8.95117188 0.35546875 C-5.96175412 0.16609387 -2.99625426 0 0 0 Z " fill="#CDB58A" transform="translate(347,459)"/>
<path d="M0 0 C1.32 0 2.64 0 4 0 C4 3.96 4 7.92 4 12 C1.36 12 -1.28 12 -4 12 C-4 11.67 -4 11.34 -4 11 C-2.02 11 -0.04 11 2 11 C2 8.03 2 5.06 2 2 C1.34 2 0.68 2 0 2 C0 1.34 0 0.68 0 0 Z " fill="#D4BA89" transform="translate(324,494)"/>
<path d="M0 0 C5.28 0 10.56 0 16 0 C16 0.33 16 0.66 16 1 C15.32453125 1.03738281 14.6490625 1.07476563 13.953125 1.11328125 C13.06109375 1.17902344 12.1690625 1.24476563 11.25 1.3125 C10.36828125 1.37050781 9.4865625 1.42851563 8.578125 1.48828125 C5.67696226 2.0641181 4.20774393 3.07596148 2 5 C1.01 4.34 0.02 3.68 -1 3 C-0.67 2.01 -0.34 1.02 0 0 Z " fill="#202833" transform="translate(754,578)"/>
<path d="M0 0 C0.66 0.33 1.32 0.66 2 1 C2.25 3.25 2.25 3.25 2 6 C0 8.3125 0 8.3125 -2 10 C-3.32 9.34 -4.64 8.68 -6 8 C-4.02 5.36 -2.04 2.72 0 0 Z " fill="#3B3E49" transform="translate(614,550)"/>
<path d="M0 0 C0 4.29 0 8.58 0 13 C-0.33 13 -0.66 13 -1 13 C-1 9.37 -1 5.74 -1 2 C-4.63 1.67 -8.26 1.34 -12 1 C-7.66314105 -1.8912393 -5.07581238 -0.73562498 0 0 Z " fill="#3B382F" transform="translate(348,457)"/>
<path d="M0 0 C0.99 0 1.98 0 3 0 C3 3.3 3 6.6 3 10 C2.01 10.33 1.02 10.66 0 11 C0 7.37 0 3.74 0 0 Z " fill="#21201A" transform="translate(258,528)"/>
<path d="M0 0 C0.78246094 -0.02578125 1.56492187 -0.0515625 2.37109375 -0.078125 C4.5625 0.25 4.5625 0.25 7.5625 3.25 C2.9425 3.25 -1.6775 3.25 -6.4375 3.25 C-6.4375 2.59 -6.4375 1.93 -6.4375 1.25 C-4.11063547 0.08656773 -2.59028587 0.05104012 0 0 Z " fill="#211F1E" transform="translate(332.4375,514.75)"/>
<path d="M0 0 C3.875 4.75 3.875 4.75 5 7 C4.67 7.66 4.34 8.32 4 9 C3.34 9 2.68 9 2 9 C2 8.34 2 7.68 2 7 C1.34 7 0.68 7 0 7 C-0.66 5.35 -1.32 3.7 -2 2 C-1.34 1.34 -0.68 0.68 0 0 Z " fill="#2A323E" transform="translate(460,558)"/>
<path d="M0 0 C0.33 0 0.66 0 1 0 C1.25 2.8125 1.25 2.8125 1 6 C-0.75 7.9375 -0.75 7.9375 -3 9 C-5.25 8.6875 -5.25 8.6875 -7 8 C-6.01 7.67 -5.02 7.34 -4 7 C-2.89163577 5.11683841 -2.89163577 5.11683841 -2 3 C-1.34 2.01 -0.68 1.02 0 0 Z " fill="#39382C" transform="translate(337,522)"/>
<path d="M0 0 C0 0.33 0 0.66 0 1 C-0.59167969 1.06058594 -1.18335938 1.12117187 -1.79296875 1.18359375 C-5.90978208 1.62012371 -9.95544533 2.08671346 -14 3 C-14 3.99 -14 4.98 -14 6 C-15.32 5.34 -16.64 4.68 -18 4 C-11.97181491 -0.28670939 -7.28695785 -0.474377 0 0 Z " fill="#686C74" transform="translate(501,513)"/>
<path d="M0 0 C0.66 1.32 1.32 2.64 2 4 C0.35 5.65 -1.3 7.3 -3 9 C-3.66 8.67 -4.32 8.34 -5 8 C-3.62845496 5.04590299 -2.01136276 2.55991624 0 0 Z " fill="#343A45" transform="translate(621,542)"/>
<path d="M0 0 C0.66 0.33 1.32 0.66 2 1 C0.125 5.875 0.125 5.875 -1 7 C-2.66617115 7.04063832 -4.33388095 7.042721 -6 7 C-4.02 4.69 -2.04 2.38 0 0 Z " fill="#B49871" transform="translate(246,469)"/>
<path d="M0 0 C1.65 0 3.3 0 5 0 C6.35439668 2.70879335 6.06501451 5.00933268 6 8 C5.34 6.68 4.68 5.36 4 4 C3.34 4 2.68 4 2 4 C2 3.34 2 2.68 2 2 C1.34 2 0.68 2 0 2 C0 1.34 0 0.68 0 0 Z " fill="#AF7E3C" transform="translate(252,558)"/>
<path d="M0 0 C0.33 0.99 0.66 1.98 1 3 C1.66 3.33 2.32 3.66 3 4 C1.35 5.98 -0.3 7.96 -2 10 C-2.66 8.68 -3.32 7.36 -4 6 C-3.34 5.67 -2.68 5.34 -2 5 C-1.27840576 3.35636866 -0.60648579 1.68949614 0 0 Z " fill="#2B323A" transform="translate(604,532)"/>
<path d="M0 0 C2.97 0.33 5.94 0.66 9 1 C9 1.33 9 1.66 9 2 C6.69 2.66 4.38 3.32 2 4 C2 5.65 2 7.3 2 9 C1.34 9 0.68 9 0 9 C0 6.03 0 3.06 0 0 Z " fill="#D4B37C" transform="translate(229,529)"/>
<path d="M0 0 C0.53625 0.226875 1.0725 0.45375 1.625 0.6875 C0.635 1.0175 -0.355 1.3475 -1.375 1.6875 C-1.045 2.3475 -0.715 3.0075 -0.375 3.6875 C-2.355 4.3475 -4.335 5.0075 -6.375 5.6875 C-6.375 5.0275 -6.375 4.3675 -6.375 3.6875 C-7.035 3.3575 -7.695 3.0275 -8.375 2.6875 C-2.95961538 -0.38942308 -2.95961538 -0.38942308 0 0 Z " fill="#373E48" transform="translate(730.375,513.3125)"/>
<path d="M0 0 C0.33 0 0.66 0 1 0 C1 1.65 1 3.3 1 5 C2.65 4.67 4.3 4.34 6 4 C4.7260411 6.03833424 3.38938077 8.03852126 2 10 C1.34 10 0.68 10 0 10 C0 6.7 0 3.4 0 0 Z " fill="#494C55" transform="translate(713,499)"/>
<path d="M0 0 C0.66 0.33 1.32 0.66 2 1 C-1.07999946 4.67230705 -3.2482602 5.56802365 -8 6 C-3.375 1.125 -3.375 1.125 0 0 Z " fill="#B99E75" transform="translate(256,463)"/>
<path d="M0 0 C0.33 1.32 0.66 2.64 1 4 C-5.5 6.125 -5.5 6.125 -10 5 C-6.7 3.35 -3.4 1.7 0 0 Z " fill="#CED5DA" transform="translate(512,557)"/>
<path d="M0 0 C0 3.69418201 -1.28179295 5.77836178 -3 9 C-3.99 9 -4.98 9 -6 9 C-4.47291037 5.56404834 -2.40072955 2.88087546 0 0 Z " fill="#D8DFE2" transform="translate(594,551)"/>
<path d="M0 0 C1 4 1 4 -0.1875 6.625 C-2 9 -2 9 -6 11 C-4.02 7.37 -2.04 3.74 0 0 Z " fill="#CDD1D6" transform="translate(519,546)"/>
<path d="M0 0 C2.3125 0.1875 2.3125 0.1875 4 1 C4 1.66 4 2.32 4 3 C0.5647952 5.29013653 -0.985331 5.17842973 -5 5 C-2.75 2.4375 -2.75 2.4375 0 0 Z " fill="#C9A570" transform="translate(321,523)"/>
<path d="M0 0 C2.33333823 2.12121657 3.9148886 4.01594365 5 7 C4.625 9.25 4.625 9.25 4 11 C4 10.01 4 9.02 4 8 C3.34 8 2.68 8 2 8 C2 7.34 2 6.68 2 6 C1.34 6 0.68 6 0 6 C0 4.02 0 2.04 0 0 Z " fill="#393E49" transform="translate(748,519)"/>
<path d="M0 0 C1.98 0 3.96 0 6 0 C6.33 0.99 6.66 1.98 7 3 C5.02 3.66 3.04 4.32 1 5 C0.67 3.35 0.34 1.7 0 0 Z " fill="#242B38" transform="translate(717,498)"/>
<path d="M0 0 C0.99 0.33 1.98 0.66 3 1 C3.33 1.99 3.66 2.98 4 4 C3.01 4.66 2.02 5.32 1 6 C-0.5 4.625 -0.5 4.625 -2 3 C-2 2.34 -2 1.68 -2 1 C-1.34 0.67 -0.68 0.34 0 0 Z " fill="#ECF1F3" transform="translate(465,560)"/>
<path d="M0 0 C1.8871875 0.0309375 1.8871875 0.0309375 3.8125 0.0625 C3.4825 1.0525 3.1525 2.0425 2.8125 3.0625 C2.255625 2.876875 1.69875 2.69125 1.125 2.5 C-1.586633 1.98698835 -3.53121039 2.3984276 -6.1875 3.0625 C-6.5175 2.4025 -6.8475 1.7425 -7.1875 1.0625 C-4.43671116 0.14557039 -2.82801087 -0.04636083 0 0 Z " fill="#CCA96E" transform="translate(304.1875,493.9375)"/>
<path d="M0 0 C0.99 0 1.98 0 3 0 C3 2.97 3 5.94 3 9 C2.01 9 1.02 9 0 9 C0 6.03 0 3.06 0 0 Z " fill="#353C47" transform="translate(657,473)"/>
<path d="M0 0 C1.32 0 2.64 0 4 0 C4 1.65 4 3.3 4 5 C2.68 5 1.36 5 0 5 C0 3.35 0 1.7 0 0 Z " fill="#E1AA56" transform="translate(232,532)"/>
<path d="M0 0 C0.99 0.33 1.98 0.66 3 1 C0.38485683 3.12038635 -2.19637616 5.13091744 -5 7 C-5 6.01 -5 5.02 -5 4 C-4.34 4 -3.68 4 -3 4 C-2.67 3.01 -2.34 2.02 -2 1 C-1.34 0.67 -0.68 0.34 0 0 Z " fill="#ECF0F3" transform="translate(483,514)"/>
<path d="M0 0 C-1.269553 0.64834654 -2.54069706 1.29357815 -3.8125 1.9375 C-4.52019531 2.29714844 -5.22789062 2.65679687 -5.95703125 3.02734375 C-8 4 -8 4 -11 5 C-11 4.34 -11 3.68 -11 3 C-10.34 3 -9.68 3 -9 3 C-8.67 2.01 -8.34 1.02 -8 0 C-4.99093136 -1.24513185 -3.0590674 -0.84653438 0 0 Z " fill="#C5AD80" transform="translate(265,472)"/>
<path d="M0 0 C0.99 0.33 1.98 0.66 3 1 C2.4140625 7.15234375 2.4140625 7.15234375 2 9 C1.01 9.495 1.01 9.495 0 10 C0 6.7 0 3.4 0 0 Z " fill="#1F201B" transform="translate(348,460)"/>
<path d="M0 0 C0.33 0 0.66 0 1 0 C1 4.29 1 8.58 1 13 C-0.32 12.34 -1.64 11.68 -3 11 C-2.01 10.67 -1.02 10.34 0 10 C0 6.7 0 3.4 0 0 Z " fill="#A88C70" transform="translate(259,566)"/>
<path d="M0 0 C0.33 0.99 0.66 1.98 1 3 C1.66 3.33 2.32 3.66 3 4 C2.67 4.66 2.34 5.32 2 6 C-2.875 4.25 -2.875 4.25 -4 2 C-2.68 1.34 -1.36 0.68 0 0 Z " fill="#DBDFE0" transform="translate(476,569)"/>
<path d="M0 0 C2.4375 0.8125 2.4375 0.8125 5 2 C5.33 2.99 5.66 3.98 6 5 C5.34 5.66 4.68 6.32 4 7 C0 2.25 0 2.25 0 0 Z " fill="#222A34" transform="translate(760,505)"/>
<path d="M0 0 C1.32 0.33 2.64 0.66 4 1 C4 1.66 4 2.32 4 3 C0.04 3 -3.92 3 -8 3 C-8 2.67 -8 2.34 -8 2 C-5.36 2 -2.72 2 0 2 C0 1.34 0 0.68 0 0 Z " fill="#D6B570" transform="translate(332,466)"/>
<path d="M0 0 C0.33 0.99 0.66 1.98 1 3 C-0.65 4.65 -2.3 6.3 -4 8 C-4.25 5.6875 -4.25 5.6875 -4 3 C-2 1.1875 -2 1.1875 0 0 Z " fill="#293239" transform="translate(597,544)"/>
<path d="M0 0 C0 3 0 3 -1 5 C-1.66 5 -2.32 5 -3 5 C-3 5.66 -3 6.32 -3 7 C-3.66 7 -4.32 7 -5 7 C-4.60196439 4.11424181 -4.20990931 3.17810487 -1.9375 1.25 C-1.298125 0.8375 -0.65875 0.425 0 0 Z " fill="#C6B285" transform="translate(271,496)"/>
<path d="M0 0 C1.32 0.66 2.64 1.32 4 2 C1.64046906 4.35953094 0.22104383 4.49141413 -3 5 C-1.125 1.125 -1.125 1.125 0 0 Z " fill="#E6E9EE" transform="translate(508,572)"/>
<path d="M0 0 C1.33332095 2.6666419 0.67102033 4.16680303 0 7 C-1.32 7 -2.64 7 -4 7 C-2.79618552 4.50638429 -1.54571278 2.31856917 0 0 Z " fill="#CDD3D7" transform="translate(599,544)"/>
<path d="M0 0 C0.66 0 1.32 0 2 0 C1.67 2.64 1.34 5.28 1 8 C-1 6 -1 6 -1.1875 3.4375 C-1 1 -1 1 0 0 Z " fill="#181E27" transform="translate(474,535)"/>
<path d="M0 0 C0.66 0.33 1.32 0.66 2 1 C2.625 3.5625 2.625 3.5625 3 6 C1.35 6 -0.3 6 -2 6 C-1.34 4.02 -0.68 2.04 0 0 Z " fill="#313A42" transform="translate(516,524)"/>
<path d="M0 0 C0.7425 0.0825 1.485 0.165 2.25 0.25 C0.27579865 2.77259061 -0.71745642 3.2429808 -3.9375 3.9375 C-5.3296875 4.0921875 -5.3296875 4.0921875 -6.75 4.25 C-3.42692308 0.31153846 -3.42692308 0.31153846 0 0 Z " fill="#382A1B" transform="translate(320.75,521.75)"/>
<path d="M0 0 C0.33 0 0.66 0 1 0 C1 2.64 1 5.28 1 8 C0.34 8 -0.32 8 -1 8 C-1.66 6.68 -2.32 5.36 -3 4 C-2.02727325 2.64664105 -1.0260734 1.31337396 0 0 Z " fill="#B19C68" transform="translate(265,500)"/>
<path d="M0 0 C0.66 0 1.32 0 2 0 C2.66 1.65 3.32 3.3 4 5 C1.36 5 -1.28 5 -4 5 C-3.34 4.360625 -2.68 3.72125 -2 3.0625 C0.11602431 1.35917681 0.11602431 1.35917681 0 0 Z " fill="#FBFBFD" transform="translate(671,481)"/>
<path d="M0 0 C0.99 0.66 1.98 1.32 3 2 C2.67 2.66 2.34 3.32 2 4 C0.02 4 -1.96 4 -4 4 C-3.67 3.01 -3.34 2.02 -3 1 C-2.01 0.67 -1.02 0.34 0 0 Z " fill="#1C2021" transform="translate(259,475)"/>
<path d="M0 0 C0.99 0.33 1.98 0.66 3 1 C2.67 1.66 2.34 2.32 2 3 C1.34 3 0.68 3 0 3 C0 3.66 0 4.32 0 5 C-1.32 4.34 -2.64 3.68 -4 3 C-2.1875 1.4375 -2.1875 1.4375 0 0 Z " fill="#D5AE6E" transform="translate(254,472)"/>
</svg>
